<svg width="18" height="23" viewBox="0 0 18 23" fill="none" xmlns="http://www.w3.org/2000/svg">
<path d="M7.05 4.075C7.05 3.86817 7.00926 3.66336 6.93011 3.47227C6.85096 3.28119 6.73495 3.10756 6.58869 2.96131C6.44244 2.81505 6.26881 2.69904 6.07773 2.61989C5.88664 2.54074 5.68183 2.5 5.475 2.5C5.26817 2.5 5.06336 2.54074 4.87227 2.61989C4.68119 2.69904 4.50756 2.81505 4.36131 2.96131C4.21505 3.10756 4.09904 3.28119 4.01989 3.47227C3.94074 3.66336 3.9 3.86817 3.9 4.075V7.075M7.05 4.075V2.575C7.05 2.15728 7.21594 1.75668 7.51131 1.46131C7.80668 1.16594 8.20728 1 8.625 1C9.04272 1 9.44332 1.16594 9.73869 1.46131C10.0341 1.75668 10.2 2.15728 10.2 2.575V4.075M7.05 4.075L7.125 10M3.9 7.075C3.9 6.65728 3.73406 6.25668 3.43869 5.96131C3.14332 5.66594 2.74272 5.5 2.325 5.5C1.90728 5.5 1.50668 5.66594 1.21131 5.96131C0.915937 6.25668 0.75 6.65728 0.75 7.075V15.25C0.75 17.0402 1.46116 18.7571 2.72703 20.023C3.9929 21.2888 5.70979 22 7.5 22H9.518C10.9103 21.9998 12.2456 21.4466 13.23 20.462L14.962 18.73C15.9466 17.7456 16.4998 16.4103 16.5 15.018L16.503 12.994C16.504 12.817 16.5752 12.6476 16.701 12.523C16.8473 12.3767 16.9633 12.203 17.0425 12.0119C17.1217 11.8208 17.1624 11.6159 17.1624 11.409C17.1624 11.2021 17.1217 10.9972 17.0425 10.8061C16.9633 10.615 16.8473 10.4413 16.701 10.295C16.5547 10.1487 16.381 10.0327 16.1899 9.95349C15.9988 9.87432 15.7939 9.83357 15.587 9.83357C15.3801 9.83357 15.1752 9.87432 14.9841 9.95349C14.793 10.0327 14.6193 10.1487 14.473 10.295C13.7595 11.0076 13.3568 11.9736 13.353 12.982M3.9 7.075V11.5M10.2 4.075V10.75M10.2 4.075C10.2 3.65728 10.3659 3.25668 10.6613 2.96131C10.9567 2.66594 11.3573 2.5 11.775 2.5C12.1927 2.5 12.5933 2.66594 12.8887 2.96131C13.1841 3.25668 13.35 3.65728 13.35 4.075V14.5M13.35 14.5C12.7593 14.4997 12.1744 14.616 11.6287 14.8421C11.083 15.0683 10.5873 15.3999 10.17 15.818M13.35 14.5H13.352" stroke="#444444" stroke-width="1.5" stroke-linecap="round" stroke-linejoin="round"/>
</svg>
