<svg width="22" height="19" viewBox="0 0 22 19" fill="none" xmlns="http://www.w3.org/2000/svg">
<path d="M3.25959 7.14692C2.98453 9.25249 2.82064 11.3711 2.76859 13.4939C5.64739 14.6964 8.40377 16.1732 10.9996 17.9039C13.5957 16.1732 16.3524 14.6964 19.2316 13.4939C19.1795 11.3711 19.0156 9.2525 18.7406 7.14692M18.7406 7.14692C19.6156 6.85292 20.5026 6.58092 21.3986 6.33292C18.1352 4.04517 14.6516 2.08881 10.9996 0.49292C7.34758 2.08914 3.86398 4.04584 0.600586 6.33392C1.49386 6.58055 2.38019 6.85165 3.25859 7.14692C5.92721 8.04413 8.51649 9.16199 10.9996 10.4889C13.4823 9.16198 16.0723 8.04412 18.7406 7.14692ZM5.74959 11.9999C5.9485 11.9999 6.13926 11.9209 6.27992 11.7802C6.42057 11.6396 6.49959 11.4488 6.49959 11.2499C6.49959 11.051 6.42057 10.8602 6.27992 10.7196C6.13926 10.5789 5.9485 10.4999 5.74959 10.4999C5.55067 10.4999 5.35991 10.5789 5.21926 10.7196C5.0786 10.8602 4.99959 11.051 4.99959 11.2499C4.99959 11.4488 5.0786 11.6396 5.21926 11.7802C5.35991 11.9209 5.55067 11.9999 5.74959 11.9999ZM5.74959 11.9999V8.32492C7.44632 7.27026 9.19888 6.30818 10.9996 5.44292M3.99259 16.9929C4.55056 16.4363 4.99302 15.7749 5.29455 15.0468C5.59608 14.3186 5.75072 13.538 5.74959 12.7499V11.2499" stroke="#444444" stroke-linecap="round" stroke-linejoin="round"/>
</svg>
