<svg width="19" height="18" viewBox="0 0 19 18" fill="none" xmlns="http://www.w3.org/2000/svg">
<path d="M5 0.75H3.5C2.90326 0.75 2.33097 0.987053 1.90901 1.40901C1.48705 1.83097 1.25 2.40326 1.25 3V4.5M14 0.75H15.5C16.0967 0.75 16.669 0.987053 17.091 1.40901C17.5129 1.83097 17.75 2.40326 17.75 3V4.5M17.75 13.5V15C17.75 15.5967 17.5129 16.169 17.091 16.591C16.669 17.0129 16.0967 17.25 15.5 17.25H14M5 17.25H3.5C2.90326 17.25 2.33097 17.0129 1.90901 16.591C1.48705 16.169 1.25 15.5967 1.25 15V13.5M12.5 9C12.5 9.79565 12.1839 10.5587 11.6213 11.1213C11.0587 11.6839 10.2956 12 9.5 12C8.70435 12 7.94129 11.6839 7.37868 11.1213C6.81607 10.5587 6.5 9.79565 6.5 9C6.5 8.20435 6.81607 7.44129 7.37868 6.87868C7.94129 6.31607 8.70435 6 9.5 6C10.2956 6 11.0587 6.31607 11.6213 6.87868C12.1839 7.44129 12.5 8.20435 12.5 9Z" stroke="#A70855" stroke-width="1.5" stroke-linecap="round" stroke-linejoin="round"/>
</svg>
