<svg width="21" height="20" viewBox="0 0 21 20" fill="none" xmlns="http://www.w3.org/2000/svg">
<path d="M10.5 1C13.255 1 15.955 1.232 18.583 1.678C19.116 1.768 19.5 2.234 19.5 2.774V3.818C19.5 4.11348 19.4418 4.40606 19.3287 4.67904C19.2157 4.95203 19.0499 5.20007 18.841 5.409L13.409 10.841C13.2001 11.0499 13.0343 11.298 12.9213 11.571C12.8082 11.8439 12.75 12.1365 12.75 12.432V15.359C12.7501 15.777 12.6337 16.1867 12.414 16.5423C12.1943 16.8978 11.8799 17.1851 11.506 17.372L8.25 19V12.432C8.25 12.1365 8.19181 11.8439 8.07874 11.571C7.96566 11.298 7.79993 11.0499 7.591 10.841L2.159 5.409C1.95007 5.20007 1.78434 4.95203 1.67126 4.67904C1.55819 4.40606 1.5 4.11348 1.5 3.818V2.774C1.5 2.234 1.884 1.768 2.417 1.678C5.08757 1.22586 7.79143 0.999058 10.5 1Z" stroke="black" stroke-width="1.5" stroke-linecap="round" stroke-linejoin="round"/>
</svg>
