<svg width="16" height="16" viewBox="0 0 16 16" fill="none" xmlns="http://www.w3.org/2000/svg">
<path d="M10.5 4.875H5.5M10.5 7.375H5.5M8 12.375L5.5 9.875H6.75C7.41304 9.875 8.04893 9.61161 8.51777 9.14277C8.98661 8.67393 9.25 8.03804 9.25 7.375C9.25 6.71196 8.98661 6.07607 8.51777 5.60723C8.04893 5.13839 7.41304 4.875 6.75 4.875M15.5 8C15.5 8.98491 15.306 9.96018 14.9291 10.8701C14.5522 11.7801 13.9997 12.6069 13.3033 13.3033C12.6069 13.9997 11.7801 14.5522 10.8701 14.9291C9.96018 15.306 8.98491 15.5 8 15.5C7.01509 15.5 6.03982 15.306 5.12987 14.9291C4.21993 14.5522 3.39314 13.9997 2.6967 13.3033C2.00026 12.6069 1.44781 11.7801 1.0709 10.8701C0.693993 9.96018 0.5 8.98491 0.5 8C0.5 6.01088 1.29018 4.10322 2.6967 2.6967C4.10322 1.29018 6.01088 0.5 8 0.5C9.98912 0.5 11.8968 1.29018 13.3033 2.6967C14.7098 4.10322 15.5 6.01088 15.5 8Z" stroke="#444444" stroke-linecap="round" stroke-linejoin="round"/>
</svg>
