<svg width="20" height="14" viewBox="0 0 20 14" fill="none" xmlns="http://www.w3.org/2000/svg">
<path d="M6.99998 13.5C5.19101 13.5 3.65544 12.8689 2.39328 11.6067C1.13109 10.3445 0.5 8.80894 0.5 6.99998C0.5 5.19101 1.13109 3.65544 2.39328 2.39328C3.65544 1.13109 5.19101 0.5 6.99998 0.5C8.80894 0.5 10.3445 1.13109 11.6067 2.39328C12.8689 3.65544 13.5 5.19101 13.5 6.99998C13.5 8.80894 12.8689 10.3445 11.6067 11.6067C10.3445 12.8689 8.80894 13.5 6.99998 13.5ZM15.0769 13.1403C14.7961 13.2352 14.5464 13.2195 14.3279 13.0932C14.1093 12.9669 14 12.748 14 12.4365C14 12.2916 14.0481 12.1583 14.1442 12.0365C14.2404 11.9147 14.3609 11.8269 14.5057 11.7731C15.5442 11.459 16.3862 10.8622 17.0317 9.98268C17.6772 9.10319 18 8.10896 18 6.99998C18 5.89099 17.6772 4.89676 17.0317 4.01728C16.3862 3.13779 15.5442 2.541 14.5057 2.2269C14.3609 2.17305 14.2404 2.08363 14.1442 1.95863C14.0481 1.83363 14 1.69869 14 1.55383C14 1.25256 14.1067 1.03783 14.3202 0.909625C14.5336 0.781425 14.7807 0.764759 15.0615 0.859625C16.3794 1.27884 17.4487 2.05223 18.2692 3.1798C19.0897 4.30735 19.5 5.58074 19.5 6.99998C19.5 8.41921 19.0897 9.69003 18.2692 10.8125C17.4487 11.9349 16.3846 12.7108 15.0769 13.1403ZM6.99998 12C8.38331 12 9.56248 11.5125 10.5375 10.5375C11.5125 9.56248 12 8.38331 12 6.99998C12 5.61664 11.5125 4.43748 10.5375 3.46248C9.56248 2.48748 8.38331 1.99998 6.99998 1.99998C5.61664 1.99998 4.43748 2.48748 3.46248 3.46248C2.48748 4.43748 1.99998 5.61664 1.99998 6.99998C1.99998 8.38331 2.48748 9.56248 3.46248 10.5375C4.43748 11.5125 5.61664 12 6.99998 12Z" fill="#444444"/>
</svg>
