<svg width="14" height="23" viewBox="0 0 14 23" fill="none" xmlns="http://www.w3.org/2000/svg">
<path d="M5.5 1H3.25C2.65326 1 2.08097 1.23705 1.65901 1.65901C1.23705 2.08097 1 2.65326 1 3.25V19.75C1 20.3467 1.23705 20.919 1.65901 21.341C2.08097 21.7629 2.65326 22 3.25 22H10.75C11.3467 22 11.919 21.7629 12.341 21.341C12.7629 20.919 13 20.3467 13 19.75V3.25C13 2.65326 12.7629 2.08097 12.341 1.65901C11.919 1.23705 11.3467 1 10.75 1H8.5M5.5 1V2.5H8.5V1M5.5 1H8.5M5.5 19.75H8.5" stroke="#444444" stroke-width="1.5" stroke-linecap="round" stroke-linejoin="round"/>
</svg>
