<svg width="16" height="16" viewBox="0 0 16 16" fill="none" xmlns="http://www.w3.org/2000/svg">
<path d="M14.875 9.79167V13.3333C14.875 14.245 14.2192 15.03 13.315 15.15C11.5759 15.3808 9.80171 15.5 8.00005 15.5C6.19838 15.5 4.42421 15.3808 2.68505 15.15C1.78088 15.03 1.12505 14.245 1.12505 13.3333V9.79167M14.875 9.79167C15.0729 9.61971 15.2312 9.40696 15.3391 9.16803C15.447 8.9291 15.5019 8.66965 15.5 8.4075V5.255C15.5 4.35417 14.86 3.57583 13.9692 3.4425C13.0253 3.30118 12.0766 3.19361 11.125 3.12M14.875 9.79167C14.7134 9.92917 14.525 10.0375 14.3142 10.1083C12.2777 10.784 10.1457 11.1273 8.00005 11.125C5.79338 11.125 3.67088 10.7675 1.68588 10.1083C1.48026 10.0399 1.28982 9.9324 1.12505 9.79167M1.12505 9.79167C0.927166 9.61971 0.768847 9.40696 0.660962 9.16803C0.553077 8.9291 0.498182 8.66965 0.500046 8.4075V5.255C0.500046 4.35417 1.14005 3.57583 2.03088 3.4425C2.97479 3.30118 3.92345 3.19361 4.87505 3.12M11.125 3.12V2.375C11.125 1.87772 10.9275 1.40081 10.5759 1.04917C10.2242 0.697544 9.74733 0.5 9.25005 0.5H6.75005C6.25277 0.5 5.77585 0.697544 5.42422 1.04917C5.07259 1.40081 4.87505 1.87772 4.87505 2.375V3.12M11.125 3.12C9.04482 2.95923 6.95528 2.95923 4.87505 3.12M8.00005 8.625H8.00671V8.63167H8.00005V8.625Z" stroke="#444444" stroke-linecap="round" stroke-linejoin="round"/>
</svg>
