<svg width="24" height="25" viewBox="0 0 24 25" fill="none" xmlns="http://www.w3.org/2000/svg">
<path d="M9.59372 4.44C9.68372 3.898 10.1537 3.5 10.7037 3.5H13.2967C13.8467 3.5 14.3167 3.898 14.4067 4.44L14.6197 5.721C14.6827 6.095 14.9327 6.407 15.2647 6.591C15.3387 6.631 15.4117 6.674 15.4847 6.718C15.8097 6.914 16.2047 6.975 16.5597 6.842L17.7767 6.386C18.0261 6.29221 18.3007 6.28998 18.5516 6.37971C18.8025 6.46945 19.0134 6.64531 19.1467 6.876L20.4427 9.123C20.5758 9.3537 20.6227 9.62413 20.5751 9.88617C20.5275 10.1482 20.3884 10.3848 20.1827 10.554L19.1797 11.381C18.8867 11.622 18.7417 11.994 18.7497 12.373C18.7511 12.458 18.7511 12.543 18.7497 12.628C18.7417 13.006 18.8867 13.378 19.1797 13.619L20.1837 14.446C20.6077 14.796 20.7177 15.401 20.4437 15.876L19.1457 18.123C19.0126 18.3536 18.8019 18.5296 18.5512 18.6195C18.3005 18.7094 18.0261 18.7074 17.7767 18.614L16.5597 18.158C16.2047 18.025 15.8097 18.086 15.4837 18.282C15.4112 18.3261 15.3379 18.3688 15.2637 18.41C14.9327 18.593 14.6827 18.905 14.6197 19.279L14.4067 20.56C14.3167 21.103 13.8467 21.5 13.2967 21.5H10.7027C10.1527 21.5 9.68372 21.102 9.59272 20.56L9.37972 19.279C9.31772 18.905 9.06772 18.593 8.73572 18.409C8.66157 18.3681 8.58822 18.3258 8.51572 18.282C8.19072 18.086 7.79572 18.025 7.43972 18.158L6.22272 18.614C5.97345 18.7075 5.69908 18.7096 5.44842 18.6199C5.19775 18.5302 4.98703 18.3545 4.85372 18.124L3.55672 15.877C3.42366 15.6463 3.37676 15.3759 3.42437 15.1138C3.47198 14.8518 3.61101 14.6152 3.81672 14.446L4.82072 13.619C5.11272 13.379 5.25772 13.006 5.25072 12.628C5.24915 12.543 5.24915 12.458 5.25072 12.373C5.25772 11.993 5.11272 11.622 4.82072 11.381L3.81672 10.554C3.61126 10.3849 3.47239 10.1484 3.42479 9.88662C3.37719 9.62481 3.42393 9.3546 3.55672 9.124L4.85372 6.877C4.9869 6.64614 5.19773 6.47006 5.44863 6.38014C5.69953 6.29021 5.97421 6.29229 6.22372 6.386L7.43972 6.842C7.79572 6.975 8.19072 6.914 8.51572 6.718C8.58772 6.674 8.66172 6.632 8.73572 6.59C9.06772 6.407 9.31772 6.095 9.37972 5.721L9.59372 4.44Z" stroke="#444444" stroke-width="1.5" stroke-linecap="round" stroke-linejoin="round"/>
<path d="M15 12.5C15 13.2956 14.6839 14.0587 14.1213 14.6213C13.5587 15.1839 12.7956 15.5 12 15.5C11.2044 15.5 10.4413 15.1839 9.87868 14.6213C9.31607 14.0587 9 13.2956 9 12.5C9 11.7044 9.31607 10.9413 9.87868 10.3787C10.4413 9.81607 11.2044 9.5 12 9.5C12.7956 9.5 13.5587 9.81607 14.1213 10.3787C14.6839 10.9413 15 11.7044 15 12.5Z" stroke="#444444" stroke-width="1.5" stroke-linecap="round" stroke-linejoin="round"/>
</svg>
