<svg width="19" height="18" viewBox="0 0 19 18" fill="none" xmlns="http://www.w3.org/2000/svg">
<path d="M1.25 9H17.75M1.25 12.75H17.75M1.25 16.5H17.75M3.125 1.5H15.875C16.3723 1.5 16.8492 1.69754 17.2008 2.04917C17.5525 2.40081 17.75 2.87772 17.75 3.375C17.75 3.87228 17.5525 4.34919 17.2008 4.70083C16.8492 5.05246 16.3723 5.25 15.875 5.25H3.125C2.62772 5.25 2.15081 5.05246 1.79917 4.70083C1.44754 4.34919 1.25 3.87228 1.25 3.375C1.25 2.87772 1.44754 2.40081 1.79917 2.04917C2.15081 1.69754 2.62772 1.5 3.125 1.5Z" stroke="#A70855" stroke-width="1.5" stroke-linecap="round" stroke-linejoin="round"/>
</svg>
