<svg width="20" height="21" viewBox="0 0 20 21" fill="none" xmlns="http://www.w3.org/2000/svg">
<path d="M13.182 13.682C12.7641 14.0999 12.2681 14.4313 11.7221 14.6575C11.1761 14.8836 10.591 15 10 15C9.40905 15 8.82388 14.8836 8.27791 14.6575C7.73194 14.4313 7.23586 14.0999 6.818 13.682M19 10.5C19 11.6819 18.7672 12.8522 18.3149 13.9442C17.8626 15.0361 17.1997 16.0282 16.364 16.864C15.5282 17.6997 14.5361 18.3626 13.4442 18.8149C12.3522 19.2672 11.1819 19.5 10 19.5C8.8181 19.5 7.64778 19.2672 6.55585 18.8149C5.46392 18.3626 4.47177 17.6997 3.63604 16.864C2.80031 16.0282 2.13738 15.0361 1.68508 13.9442C1.23279 12.8522 1 11.6819 1 10.5C1 8.11305 1.94821 5.82387 3.63604 4.13604C5.32387 2.44821 7.61305 1.5 10 1.5C12.3869 1.5 14.6761 2.44821 16.364 4.13604C18.0518 5.82387 19 8.11305 19 10.5ZM7.75 8.25C7.75 8.664 7.582 9 7.375 9C7.168 9 7 8.664 7 8.25C7 7.836 7.168 7.5 7.375 7.5C7.582 7.5 7.75 7.836 7.75 8.25ZM7.375 8.25H7.383V8.265H7.375V8.25ZM13 8.25C13 8.664 12.832 9 12.625 9C12.418 9 12.25 8.664 12.25 8.25C12.25 7.836 12.418 7.5 12.625 7.5C12.832 7.5 13 7.836 13 8.25ZM12.625 8.25H12.633V8.265H12.625V8.25Z" stroke="#444444" stroke-width="1.5" stroke-linecap="round" stroke-linejoin="round"/>
</svg>
