<svg width="24" height="25" viewBox="0 0 24 25" fill="none" xmlns="http://www.w3.org/2000/svg">
<path d="M21 12.5C21 13.6819 20.7672 14.8522 20.3149 15.9442C19.8626 17.0361 19.1997 18.0282 18.364 18.864C17.5282 19.6997 16.5361 20.3626 15.4442 20.8149C14.3522 21.2672 13.1819 21.5 12 21.5C10.8181 21.5 9.64778 21.2672 8.55585 20.8149C7.46392 20.3626 6.47177 19.6997 5.63604 18.864C4.80031 18.0282 4.13738 17.0361 3.68508 15.9442C3.23279 14.8522 3 13.6819 3 12.5C3 10.1131 3.94821 7.82387 5.63604 6.13604C7.32387 4.44821 9.61305 3.5 12 3.5C14.3869 3.5 16.6761 4.44821 18.364 6.13604C20.0518 7.82387 21 10.1131 21 12.5Z" stroke="#444444" stroke-width="1.5" stroke-linecap="round" stroke-linejoin="round"/>
<path d="M15.91 12.172C15.9686 12.2044 16.0174 12.252 16.0513 12.3097C16.0853 12.3673 16.1032 12.4331 16.1032 12.5C16.1032 12.5669 16.0853 12.6327 16.0513 12.6903C16.0174 12.748 15.9686 12.7955 15.91 12.828L10.307 15.941C10.2499 15.9727 10.1855 15.9889 10.1202 15.9881C10.0549 15.9873 9.99099 15.9694 9.93472 15.9363C9.87845 15.9031 9.8318 15.8559 9.79941 15.7992C9.76701 15.7425 9.74998 15.6783 9.75 15.613V9.387C9.75 9.101 10.057 8.921 10.307 9.06L15.91 12.172Z" stroke="#444444" stroke-width="1.5" stroke-linecap="round" stroke-linejoin="round"/>
</svg>
